<svg width="100" height="100" xmlns="http://www.w3.org/2000/svg" xmlns:svg="http://www.w3.org/2000/svg" xmlns:se="http://svg-edit.googlecode.com">
 <metadata id="metadata27">image/svg+xml</metadata>
 <defs>
  <style type="text/css">.cls-1{fill:#413d4a}.cls-2{fill:#a09ea5}.cls-3{fill:none}</style>
  <style>.cls-1{fill:#66f;}</style>
 </defs>
 <g class="layer">
  <title>Layer 1</title>
  <g data-name="Group 9062" id="Group_9062">
   <g data-name="Group 9060" id="Group_9060">
    <path class="cls-1" d="m0,0l10,0l0,9l-10,0l0,-9z" data-name="Rectangle 4717" id="Rectangle_4717" transform="translate(45 18)"/>
    <g data-name="Group 9059" id="Group_9059">
     <path class="cls-1" d="m0,0l6,0l0,10l-6,0l0,-10z" data-name="Rectangle 4718" id="Rectangle_4718" transform="translate(14 66)"/>
     <path class="cls-1" d="m0,0l6,0l0,10l-6,0l0,-10z" data-name="Rectangle 4719" id="Rectangle_4719" transform="translate(80 66)"/>
     <path class="cls-1" d="m0,0l6,0l0,10l-6,0l0,-10z" data-name="Rectangle 4720" id="Rectangle_4720" transform="translate(47 66)"/>
    </g>
   </g>
   <g data-name="Group 9061" id="Group_9061">
    <path class="cls-2" d="m0,0l2,0l0,4l-2,0l0,-4z" data-name="Rectangle 4722" id="Rectangle_4722" transform="translate(67 40)"/>
    <circle class="cls-2" cx="1" cy="1" data-name="Ellipse 643" id="Ellipse_643" r="1" transform="translate(49 72)"/>
    <circle class="cls-2" cx="1" cy="1" data-name="Ellipse 644" id="Ellipse_644" r="1" transform="translate(82 72)"/>
    <path class="cls-2" d="m0,0l4,0l0,2l-4,0l0,-2z" data-name="Rectangle 4723" id="Rectangle_4723" transform="translate(32 58)"/>
    <path class="cls-2" d="m16,65l-3,0l0,3l-6,0l0,4l2,0l0,-2l4,0l0,7l8,0l0,-7l4,0l0,21l-16,0l0,-15l-2,0l0,17l20,0l0,-25l-6,0l0,-3l-3,0l0,-5l10,0l0,-2l-12,0l0,7zm3,2l0,8l-4,0l0,-8l4,0z" data-name="Path 19007" id="Path_19007"/>
    <circle class="cls-2" cx="1" cy="1" data-name="Ellipse 645" id="Ellipse_645" r="1" transform="translate(16 72)"/>
    <path class="cls-2" d="m87,68l0,-3l-3,0l0,-7l-33,0l0,-5l18,0l0,-5l-2,0l0,3l-34,0l0,-23l34,0l0,8l2,0l0,-8l4,0l0,-11l-13.54,0a5.994,5.994 0 1 0 -9.46,-7.31a5.995,5.995 0 1 0 -9.46,7.31l-13.54,0l0,11l4,0l0,25l18,0l0,5l-9,0l0,2l9,0l0,5l-3,0l0,3l-6,0l0,16l2,0l0,-14l4,0l0,7l8,0l0,-7l4,0l0,21l-16,0l0,-3l-2,0l0,5l20,0l0,-25l-6,0l0,-3l-3,0l0,-5l31,0l0,5l-3,0l0,3l-6,0l0,12l2,0l0,-10l4,0l0,7l8,0l0,-7l4,0l0,21l-16,0l0,-7l-2,0l0,9l20,0l0,-25l-6,0zm-16,-49l0,7l-15,0l0,-7l15,0zm-20,-6a4,4 0 1 1 4,4l-4,0l0,-4zm0,6l3,0l0,7l-8,0l0,-7l5,0zm-6,-10a4,4 0 0 1 4,4l0,4l-4,0a4,4 0 0 1 0,-8zm-16,17l0,-7l15,0l0,7l-15,0zm23,41l0,8l-4,0l0,-8l4,0zm33,8l-4,0l0,-8l4,0l0,8z" data-name="Path 19008" id="Path_19008"/>
    <g data-name="Layer 2" fill="#a09ea5" id="Layer_2" transform="matrix(0.142082 0 0 0.1125 34.9016 28.7659)">
     <g data-name="Layer 1" fill="#a09ea5" id="Layer_1-2">
      <g fill="#a09ea5" id="g24" transform="matrix(0.47225393,0,0,0.47530634,5,10.999999)">
       <path class="cls-2" d="m193.333,7.432c0.321,0.062 0.845,0.062 1.165,0c0.321,-0.062 0.059,-0.112 -0.582,-0.112c-0.641,0 -0.903,0.05 -0.583,0.112m11.91,0c0.32,0.062 0.844,0.062 1.165,0c0.32,-0.062 0.058,-0.112 -0.583,-0.112c-0.641,0 -0.903,0.05 -0.582,0.112m-92.492,20.616c-59.667,30.691 -98.736,87.878 -105.095,153.829c-7.704,79.906 34.378,155.733 106.451,191.812c2.17,1.086 3.975,1.975 4.013,1.975c0.037,0 0.028,-0.768 -0.02,-1.708c-0.087,-1.687 -0.081,-1.706 0.518,-1.518c0.333,0.104 -1.783,-1.034 -4.702,-2.53c-54.022,-27.672 -91.452,-78.648 -101.358,-138.039c-13.66,-81.899 27.182,-162.787 101.358,-200.745c2.919,-1.494 5.035,-2.63 4.702,-2.526c-0.599,0.187 -0.605,0.169 -0.518,-1.519c0.048,-0.939 0.029,-1.705 -0.042,-1.701c-0.071,0.003 -2.459,1.205 -5.307,2.67m169.666,-0.704c0.065,1.247 0.002,1.654 -0.259,1.659c-0.19,0.004 2.217,1.322 5.35,2.93c55.269,28.369 93.628,83.649 101.085,145.672c1.023,8.512 1.18,11.584 1.18,23.042c0,71.304 -39.812,136.751 -102.566,168.609c-2.871,1.458 -5.103,2.723 -4.959,2.812c0.146,0.09 0.222,0.851 0.172,1.726l-0.09,1.565l0.906,-0.378c17.131,-7.146 42.963,-26.236 58.678,-43.362c87.161,-94.987 59.376,-246.442 -55.798,-304.162c-4.123,-2.066 -3.801,-2.056 -3.699,-0.113m-118.854,14.781c0.322,0.062 0.788,0.059 1.035,-0.005c0.248,-0.065 -0.015,-0.116 -0.585,-0.113c-0.57,0.003 -0.772,0.056 -0.45,0.118m26.405,-0.001c0.32,0.062 0.844,0.062 1.165,0c0.32,-0.061 0.058,-0.112 -0.583,-0.112c-0.641,0 -0.903,0.051 -0.582,0.112m-23.42,7.518c0.967,0.05 2.482,0.05 3.366,-0.001c0.884,-0.05 0.092,-0.091 -1.759,-0.091c-1.851,0.001 -2.574,0.042 -1.607,0.092m18.511,0c0.895,0.05 2.293,0.05 3.106,-0.001c0.814,-0.051 0.081,-0.093 -1.628,-0.092c-1.709,0 -2.374,0.042 -1.478,0.093m39.36,0.002c3.606,0.04 9.431,0.04 12.945,0c3.515,-0.041 0.565,-0.074 -6.555,-0.074c-7.12,0 -9.995,0.033 -6.39,0.074m-34.292,2.524c0.001,1.424 0.044,1.974 0.097,1.221c0.052,-0.752 0.051,-1.917 -0.002,-2.589c-0.053,-0.671 -0.096,-0.056 -0.095,1.368m148.902,4.272c0.556,0.57 1.07,1.036 1.141,1.036c0.071,0 -0.326,-0.466 -0.882,-1.036c-0.556,-0.569 -1.069,-1.035 -1.141,-1.035c-0.071,0 0.326,0.466 0.882,1.035m4.401,4.401c0.557,0.57 1.07,1.036 1.141,1.036c0.071,0 -0.326,-0.466 -0.882,-1.036c-0.556,-0.569 -1.069,-1.035 -1.14,-1.035c-0.072,0 0.325,0.466 0.881,1.035m-271.08,7.573l-1.023,1.101l1.1,-1.024c1.023,-0.952 1.219,-1.177 1.024,-1.177c-0.043,0 -0.538,0.495 -1.101,1.1m-4.273,4.272l-0.893,0.971l0.971,-0.892c0.534,-0.491 0.971,-0.928 0.971,-0.971c0,-0.198 -0.219,-0.012 -1.049,0.892m53.606,11.068l0,3.754l16.569,0l16.57,0l0,-3.754l0,-3.754l-16.57,0l-16.569,0l0,3.754m131.78,2.43l0,3.841l1.25,0.148c9.292,1.1 23.51,7.054 30.473,12.76c0.595,0.487 1.156,0.886 1.248,0.886c0.093,0 0.168,-2.029 0.168,-4.509l0,-4.509l-2.959,-1.823c-8.669,-5.339 -17.477,-8.489 -29.339,-10.493l-0.841,-0.142l0,3.841m50.485,9.479c0.774,0.784 1.465,1.424 1.536,1.424c0.071,0 -0.503,-0.64 -1.277,-1.424c-0.773,-0.783 -1.464,-1.424 -1.536,-1.424c-0.071,0 0.504,0.641 1.277,1.424m-182.226,104.596c0.006,66.492 0.058,77.228 0.367,76.116c0.867,-3.123 0.923,-8.546 0.824,-78.835c-0.099,-69.756 -0.129,-72.032 -0.962,-74.105c-0.142,-0.355 -0.233,30.026 -0.229,76.824m113.747,-75.469c0.556,0.569 1.07,1.035 1.141,1.035c0.071,0 -0.326,-0.466 -0.882,-1.035c-0.556,-0.57 -1.069,-1.036 -1.141,-1.036c-0.071,0 0.326,0.466 0.882,1.036m-67.273,0.377c-3.438,1.226 -3.266,-0.206 -3.266,27.066c0,26.525 -0.136,24.787 2.079,26.392l1.095,0.792l8.634,0l8.634,0l0,-1.542l0,-1.543l-8.176,-0.076c-7.748,-0.071 -8.196,-0.101 -8.544,-0.577c-0.679,-0.93 -0.534,-46.321 0.151,-47.006c0.495,-0.495 0.863,-0.518 8.543,-0.518l8.026,0l0,-1.544l0,-1.545l2.783,-0.083c1.531,-0.046 -2.11,-0.103 -8.09,-0.127c-8.641,-0.035 -11.078,0.029 -11.869,0.311m42.484,-0.195c0.32,0.062 0.844,0.062 1.165,0c0.32,-0.061 0.058,-0.112 -0.583,-0.112c-0.641,0 -0.903,0.051 -0.582,0.112m4.725,1.877c0,1.313 -0.074,1.568 -0.454,1.579c-0.249,0.008 0.363,0.229 1.36,0.491c7.358,1.936 13.202,7.722 15.31,15.159c0.751,2.646 0.817,12.462 0.106,15.541c-1.82,7.873 -7.531,13.729 -15.546,15.938c-0.925,0.255 -1.479,0.471 -1.23,0.479c0.38,0.013 0.454,0.268 0.454,1.569c0,0.855 0.089,1.554 0.199,1.554c5.538,0 14.369,-6.874 17.652,-13.741c3.325,-6.954 3.25,-19.952 -0.153,-26.722c-3.406,-6.777 -10.046,-12.031 -16.728,-13.237l-0.97,-0.175l0,1.565m-18.965,49.396c2.314,0.043 6.1,0.043 8.414,0c2.314,-0.042 0.421,-0.078 -4.207,-0.078c-4.628,0 -6.521,0.036 -4.207,0.078m87.961,3.006c-3.704,2.878 -7.708,5.164 -15.404,8.794c-3.062,1.444 -11.249,5.946 -11.868,6.525c-0.048,0.046 2.69,0.971 6.084,2.057c12.27,3.925 17.023,5.6 20.183,7.112l3.219,1.539l-0.071,-4.145l-0.072,-4.144l-2.071,-0.923c-1.139,-0.507 -3.453,-1.414 -5.143,-2.014l-3.073,-1.092l2.296,-1.229c1.263,-0.676 3.606,-2.063 5.208,-3.081l2.913,-1.853l0,-4.596c0,-2.528 -0.029,-4.588 -0.065,-4.577c-0.035,0.01 -0.997,0.742 -2.136,1.627m-87.961,0.36c2.314,0.043 6.1,0.043 8.414,0c2.314,-0.043 0.421,-0.078 -4.207,-0.078c-4.628,0 -6.521,0.035 -4.207,0.078m114.628,22.072c0.845,0.854 1.595,1.553 1.667,1.553c0.071,0 -0.563,-0.699 -1.408,-1.553c-0.846,-0.855 -1.596,-1.554 -1.667,-1.554c-0.071,0 0.563,0.699 1.408,1.554m-142.522,13.285c-1.229,0.392 -3.006,2.224 -3.347,3.452c-0.382,1.376 -0.387,57.818 -0.005,59.192c0.974,3.51 2.05,3.807 13.706,3.771c5.339,-0.016 9.446,-0.08 9.126,-0.142c-0.518,-0.099 -0.583,-0.266 -0.583,-1.5c0,-1.233 0.065,-1.4 0.583,-1.5c0.32,-0.062 -3.704,-0.128 -8.944,-0.147l-9.526,-0.036l-0.636,-0.635l-0.635,-0.636l0,-28.721c0,-27.887 0.014,-28.738 0.494,-29.332l0.495,-0.611l9.667,-0.137c5.317,-0.076 9.405,-0.163 9.085,-0.194c-0.526,-0.052 -0.583,-0.195 -0.583,-1.463c0,-1.252 0.064,-1.419 0.583,-1.518c0.32,-0.062 -3.728,-0.117 -8.997,-0.121c-6.335,-0.006 -9.885,0.088 -10.483,0.278m52.041,2.184l0.005,1.748l1.935,0.612c7.339,2.323 13.596,9.026 16.105,17.252l0.711,2.33l0.005,8.802c0.005,8.412 -0.022,8.901 -0.596,11.004c-2.275,8.333 -8.5,15.081 -16.357,17.731l-1.683,0.567l-0.077,1.725c-0.088,1.985 -0.213,1.931 2.442,1.044c9.164,-3.061 16.351,-10.72 18.92,-20.161l0.705,-2.589l0,-9.191l0,-9.191l-0.704,-2.583c-2.615,-9.601 -10.123,-17.423 -19.504,-20.32c-0.939,-0.29 -1.753,-0.527 -1.809,-0.527c-0.056,0 -0.1,0.786 -0.098,1.747m64.155,81.222c-7.164,4.806 -18.138,8.943 -28.884,10.89l-2.395,0.434l0,3.727c0,4.397 -0.578,4.044 4.841,2.963c9.956,-1.986 17.691,-4.685 25.37,-8.853l2.928,-1.589l0,-4.365c0,-2.4 -0.03,-4.364 -0.068,-4.364c-0.037,0 -0.843,0.521 -1.792,1.157m24.764,6.416l-1.545,1.618l1.618,-1.546c1.503,-1.435 1.737,-1.69 1.546,-1.69c-0.04,0 -0.769,0.728 -1.619,1.618m-98.826,7.885c0.32,0.061 0.844,0.061 1.165,0c0.32,-0.062 0.058,-0.113 -0.583,-0.113c-0.641,0 -0.903,0.051 -0.582,0.113m-88.997,3.7l0,3.625l9.644,0c5.304,0.001 13.256,0.048 17.67,0.106c4.414,0.058 7.531,0.051 6.925,-0.015l-1.1,-0.121l0,-3.609l0,-3.61l-16.57,0l-16.569,0l0,3.624m79.044,3.819c1.824,0.044 4.736,0.044 6.473,-0.001c1.736,-0.044 0.243,-0.081 -3.317,-0.081c-3.559,0 -4.98,0.037 -3.156,0.082m-130.436,9.385c1.276,1.282 2.378,2.33 2.449,2.33c0.071,0 -0.914,-1.048 -2.19,-2.33c-1.275,-1.281 -2.377,-2.33 -2.449,-2.33c-0.071,0 0.915,1.049 2.19,2.33m270.934,11.845l-2.455,2.524l2.524,-2.454c2.345,-2.28 2.643,-2.594 2.455,-2.594c-0.038,0 -1.174,1.136 -2.524,2.524m-143.835,11.456c0,2.777 0.038,3.913 0.085,2.525c0.046,-1.389 0.046,-3.661 0,-5.049c-0.047,-1.388 -0.085,-0.252 -0.085,2.524m-40.391,0.777c0,2.349 0.039,3.311 0.087,2.136c0.048,-1.175 0.048,-3.097 0,-4.272c-0.048,-1.175 -0.087,-0.214 -0.087,2.136m13.681,-3.172c3.524,0.041 9.291,0.041 12.815,0c3.524,-0.04 0.641,-0.074 -6.408,-0.074c-7.048,0 -9.932,0.034 -6.407,0.074m53.739,0c3.606,0.041 9.431,0.041 12.945,0c3.515,-0.04 0.565,-0.074 -6.555,-0.074c-7.12,0 -9.995,0.034 -6.39,0.074m-31.086,43.225c0.321,0.062 0.845,0.062 1.165,0c0.321,-0.061 0.059,-0.112 -0.582,-0.112c-0.641,0 -0.903,0.051 -0.583,0.112m11.91,0c0.32,0.062 0.844,0.062 1.165,0c0.32,-0.061 0.058,-0.112 -0.583,-0.112c-0.641,0 -0.903,0.051 -0.582,0.112" fill="#a09ea5" fill-opacity="0" fill-rule="evenodd" id="svg_1"/>
       <path id="path0" d="M99.200 19.200 L 99.200 38.400 57.800 38.400 L 16.400 38.400 16.400 171.200 L 16.400 304.000 8.200 304.000 L 0.000 304.000 0.000 322.800 L 0.000 341.600 8.200 341.600 L 16.400 341.600 16.400 370.800 L 16.400 400.000 45.400 400.000 L 74.400 400.000 74.400 370.800 L 74.400 341.600 150.167 341.600 C 191.839 341.600,226.219 341.491,226.567 341.357 C 227.132 341.141,227.200 339.110,227.200 322.557 L 227.200 304.000 150.800 304.000 L 74.400 304.000 74.400 271.200 L 74.400 238.400 86.800 238.400 L 99.200 238.400 99.200 258.590 L 99.200 278.780 128.800 278.795 L 158.400 278.809 158.400 258.605 L 158.400 238.400 164.000 238.400 L 169.600 238.400 169.600 258.600 L 169.600 278.800 198.400 278.800 L 227.200 278.800 227.200 258.610 L 227.200 238.419 250.232 238.310 C 271.632 238.208,273.301 238.150,273.776 237.500 C 274.213 236.903,274.972 236.800,278.944 236.800 C 283.445 236.800,283.600 236.771,283.600 235.938 C 283.600 235.100,283.577 235.097,282.798 235.802 C 281.926 236.591,281.444 236.499,281.972 235.645 C 282.219 235.246,283.450 235.127,286.879 235.171 C 291.738 235.233,292.800 235.052,292.800 234.157 C 292.800 233.730,293.508 233.600,295.837 233.600 C 298.538 233.600,298.898 233.511,299.084 232.800 C 299.263 232.114,299.630 232.000,301.647 232.000 C 303.733 232.000,304.000 231.909,304.000 231.200 C 304.000 230.471,304.267 230.400,307.000 230.400 C 309.733 230.400,310.000 230.329,310.000 229.600 C 310.000 228.950,310.267 228.800,311.426 228.800 C 312.211 228.800,313.222 228.602,313.675 228.360 C 314.272 228.040,314.422 228.040,314.225 228.360 C 314.075 228.602,314.164 228.800,314.423 228.800 C 314.696 228.800,314.806 228.465,314.684 228.000 C 314.478 227.212,316.106 226.895,318.900 227.179 C 319.363 227.226,319.600 226.971,319.600 226.425 C 319.600 225.597,320.503 225.377,323.067 225.580 C 323.543 225.618,324.083 225.394,324.267 225.083 C 324.450 224.772,325.404 224.413,326.386 224.285 C 327.368 224.158,328.378 223.771,328.630 223.427 C 328.882 223.081,329.669 222.800,330.382 222.800 C 331.338 222.800,331.729 222.592,331.884 222.000 C 332.049 221.368,332.430 221.200,333.693 221.200 C 335.137 221.200,335.276 221.112,335.121 220.300 C 334.960 219.460,335.067 219.410,336.730 219.545 C 338.417 219.682,338.501 219.640,338.329 218.741 C 338.161 217.863,338.257 217.803,339.635 217.935 C 340.861 218.052,341.168 217.930,341.388 217.238 C 341.592 216.595,341.984 216.400,343.074 216.400 C 344.296 216.400,344.464 216.289,344.284 215.600 C 344.098 214.889,344.272 214.800,345.837 214.800 C 347.333 214.800,347.600 214.679,347.600 214.000 C 347.600 213.348,347.867 213.200,349.037 213.200 C 350.138 213.200,350.524 213.013,350.684 212.400 C 350.800 211.957,351.230 211.600,351.647 211.600 C 352.133 211.600,352.400 211.317,352.400 210.800 C 352.400 209.968,352.662 209.867,354.500 209.988 C 355.370 210.045,355.600 209.887,355.600 209.230 C 355.600 208.667,355.857 208.400,356.400 208.400 C 356.844 208.400,357.200 208.133,357.200 207.800 C 357.200 207.470,357.545 207.200,357.967 207.200 C 359.159 207.200,360.000 206.769,360.000 206.157 C 360.000 205.851,360.360 205.600,360.800 205.600 C 361.333 205.600,361.600 205.333,361.600 204.800 C 361.600 204.289,361.867 204.000,362.338 204.000 C 362.744 204.000,363.402 203.640,363.800 203.200 C 364.198 202.760,364.967 202.400,365.509 202.400 C 366.324 202.400,366.463 202.240,366.315 201.469 C 366.163 200.674,366.274 200.563,367.069 200.715 C 367.807 200.856,368.000 200.717,368.000 200.047 C 368.000 199.467,368.252 199.200,368.800 199.200 C 369.333 199.200,369.600 198.933,369.600 198.400 C 369.600 197.867,369.867 197.600,370.400 197.600 C 370.933 197.600,371.200 197.333,371.200 196.800 C 371.200 196.267,371.467 196.000,372.000 196.000 C 372.533 196.000,372.800 195.733,372.800 195.200 C 372.800 194.667,373.067 194.400,373.600 194.400 C 374.133 194.400,374.400 194.133,374.400 193.600 C 374.400 192.952,374.667 192.800,375.800 192.800 C 377.133 192.800,377.200 192.733,377.200 191.400 C 377.200 190.267,377.352 190.000,378.000 190.000 C 378.533 190.000,378.800 189.733,378.800 189.200 C 378.800 188.692,379.067 188.400,379.530 188.400 C 380.428 188.400,382.000 186.792,382.000 185.874 C 382.000 185.467,382.316 185.200,382.800 185.200 C 383.333 185.200,383.600 184.933,383.600 184.400 C 383.600 183.867,383.867 183.600,384.400 183.600 C 384.933 183.600,385.200 183.333,385.200 182.800 C 385.200 182.267,385.467 182.000,386.000 182.000 C 386.517 182.000,386.800 181.733,386.800 181.247 C 386.800 180.830,387.157 180.400,387.600 180.284 C 388.213 180.124,388.400 179.738,388.400 178.637 C 388.400 177.450,388.544 177.200,389.229 177.200 C 389.857 177.200,390.029 176.982,389.939 176.296 C 389.811 175.323,390.900 173.433,391.336 173.869 C 391.481 174.014,391.600 173.833,391.600 173.467 C 391.600 173.100,391.881 172.800,392.225 172.800 C 392.581 172.800,392.820 172.498,392.779 172.100 C 392.590 170.244,392.813 169.600,393.643 169.600 C 394.336 169.600,394.443 169.427,394.244 168.632 C 393.917 167.329,394.325 166.400,395.224 166.400 C 395.850 166.400,395.980 166.020,396.081 163.900 C 396.185 161.725,396.296 161.416,396.938 161.526 C 397.552 161.631,397.636 161.465,397.438 160.526 C 397.174 159.271,397.460 158.667,398.500 158.283 C 399.580 157.885,399.485 155.432,398.400 155.716 C 397.960 155.831,397.600 155.783,397.600 155.609 C 397.600 155.435,397.960 155.199,398.400 155.084 C 398.983 154.932,399.200 154.538,399.200 153.637 C 399.200 152.957,399.380 152.400,399.600 152.400 C 400.181 152.400,400.092 150.504,399.500 150.265 C 399.100 150.104,399.100 150.057,399.500 150.032 C 400.100 149.994,400.243 126.800,399.643 126.800 C 398.898 126.800,398.760 125.419,399.455 124.911 C 399.839 124.630,399.939 124.400,399.676 124.400 C 399.350 124.400,399.200 123.452,399.200 121.390 C 399.200 118.514,399.154 118.363,398.157 117.984 C 397.225 117.629,397.141 117.438,397.375 116.193 C 397.604 114.971,397.536 114.800,396.818 114.800 C 396.091 114.800,396.000 114.550,396.000 112.563 C 396.000 110.662,395.880 110.294,395.200 110.116 C 394.599 109.959,394.400 109.570,394.400 108.553 C 394.400 107.467,394.242 107.200,393.600 107.200 C 393.067 107.200,392.800 106.933,392.800 106.400 C 392.800 105.956,392.533 105.600,392.200 105.600 C 391.797 105.600,391.600 105.197,391.600 104.376 C 391.600 103.672,391.432 103.256,391.205 103.397 C 390.969 103.543,390.916 103.362,391.074 102.951 C 391.277 102.422,391.182 102.321,390.669 102.518 C 390.139 102.722,390.000 102.535,390.000 101.620 C 390.000 100.061,389.629 99.200,388.957 99.200 C 388.651 99.200,388.400 98.819,388.400 98.353 C 388.400 97.683,388.207 97.544,387.469 97.685 C 386.674 97.837,386.563 97.726,386.715 96.931 C 386.856 96.193,386.717 96.000,386.047 96.000 C 385.346 96.000,385.200 95.759,385.200 94.600 C 385.200 93.467,385.048 93.200,384.400 93.200 C 383.867 93.200,383.600 92.933,383.600 92.400 C 383.600 91.822,383.333 91.600,382.637 91.600 C 381.870 91.600,381.718 91.437,381.885 90.796 C 382.056 90.141,381.920 90.012,381.148 90.096 C 380.371 90.181,380.223 90.037,380.325 89.300 C 380.420 88.617,380.251 88.400,379.625 88.400 C 379.067 88.400,378.800 88.141,378.800 87.600 C 378.800 87.067,378.533 86.800,378.000 86.800 C 377.467 86.800,377.200 86.533,377.200 86.000 C 377.200 85.467,376.933 85.200,376.400 85.200 C 375.867 85.200,375.600 84.933,375.600 84.400 C 375.600 83.956,375.333 83.600,375.000 83.600 C 374.670 83.600,374.400 83.313,374.400 82.963 C 374.400 82.612,374.040 82.231,373.600 82.116 C 373.157 82.000,372.800 81.570,372.800 81.153 C 372.800 80.667,372.517 80.400,372.000 80.400 C 371.548 80.400,371.200 80.133,371.200 79.787 C 371.200 79.451,370.899 79.059,370.531 78.918 C 370.162 78.777,369.532 78.332,369.131 77.931 C 368.729 77.529,367.950 77.200,367.400 77.200 C 366.752 77.200,366.400 76.976,366.400 76.563 C 366.400 76.212,366.040 75.831,365.600 75.716 C 365.160 75.601,364.800 75.258,364.800 74.953 C 364.800 74.649,364.440 74.400,364.000 74.400 C 363.457 74.400,363.200 74.133,363.200 73.570 C 363.200 72.913,362.970 72.755,362.100 72.812 C 360.270 72.933,360.000 72.832,360.000 72.028 C 360.000 71.532,359.678 71.210,359.100 71.128 C 358.524 71.046,358.239 70.763,358.308 70.340 C 358.392 69.830,358.120 69.694,357.108 69.740 C 356.034 69.789,355.777 69.639,355.672 68.900 C 355.590 68.322,355.268 68.000,354.772 68.000 C 354.267 68.000,354.000 67.724,354.000 67.200 C 354.000 66.533,353.733 66.400,352.400 66.400 C 351.067 66.400,350.800 66.267,350.800 65.600 C 350.800 65.083,350.533 64.800,350.047 64.800 C 349.616 64.800,349.199 64.438,349.072 63.956 C 348.886 63.244,348.608 63.134,347.300 63.259 C 345.872 63.395,345.762 63.335,345.921 62.504 C 346.080 61.670,345.949 61.600,344.220 61.600 C 342.528 61.600,342.371 61.522,342.600 60.800 C 342.822 60.102,342.672 60.000,341.427 60.000 C 340.379 60.000,340.000 59.828,340.000 59.353 C 340.000 58.903,339.756 58.770,339.199 58.916 C 338.759 59.031,338.500 58.962,338.623 58.763 C 338.746 58.563,338.387 58.400,337.824 58.400 C 337.162 58.400,336.800 58.179,336.800 57.775 C 336.800 57.419,336.498 57.180,336.100 57.221 C 334.254 57.409,333.600 57.186,333.600 56.370 C 333.600 55.713,333.370 55.555,332.500 55.612 C 330.735 55.729,330.505 55.644,330.284 54.800 C 330.104 54.112,329.738 54.000,327.675 54.000 C 325.472 54.000,325.292 53.934,325.484 53.200 C 325.668 52.496,325.496 52.400,324.047 52.400 C 322.648 52.400,322.400 52.275,322.400 51.572 C 322.400 50.823,322.179 50.749,320.100 50.804 C 316.515 50.900,316.133 50.841,316.133 50.200 C 316.133 49.424,316.363 49.444,317.315 50.300 C 318.060 50.971,318.087 50.966,317.943 50.200 C 317.818 49.533,317.426 49.381,315.596 49.284 C 314.122 49.206,313.235 48.949,312.896 48.503 C 312.548 48.042,311.607 47.787,309.832 47.674 C 307.697 47.538,307.236 47.380,307.064 46.724 C 306.878 46.011,306.564 45.950,303.703 46.069 C 300.616 46.197,300.551 46.180,300.720 45.300 C 300.888 44.426,300.798 44.400,297.647 44.400 C 295.149 44.400,294.400 44.272,294.400 43.847 C 294.400 43.092,293.132 42.812,289.687 42.805 C 287.471 42.801,286.720 42.657,286.545 42.200 C 286.418 41.870,285.873 41.600,285.334 41.600 C 284.722 41.600,284.455 41.766,284.625 42.040 C 284.822 42.360,284.672 42.360,284.075 42.040 C 283.622 41.798,281.531 41.600,279.426 41.600 C 275.810 41.600,275.600 41.554,275.600 40.763 C 275.600 40.009,275.392 39.935,273.500 40.013 C 263.527 40.424,250.886 39.974,250.684 39.200 C 250.481 38.423,250.138 38.400,238.837 38.400 L 227.200 38.400 227.200 19.200 L 227.200 0.000 198.400 0.000 L 169.600 0.000 169.600 19.200 L 169.600 38.400 164.000 38.400 L 158.400 38.400 158.400 19.200 L 158.400 0.000 128.800 0.000 L 99.200 0.000 99.200 19.200 M99.600 39.196 C 99.600 39.986,99.235 39.994,58.190 40.096 C 21.559 40.188,16.793 40.131,16.895 39.600 C 16.997 39.073,22.014 38.975,58.205 38.797 C 80.862 38.686,99.445 38.551,99.500 38.497 C 99.555 38.444,99.600 38.758,99.600 39.196 M169.901 39.500 C 170.028 39.885,168.722 40.000,164.233 40.000 C 159.268 40.000,158.400 39.909,158.400 39.389 C 158.400 38.574,169.629 38.682,169.901 39.500 M250.300 39.500 C 250.431 39.892,247.962 40.000,238.833 40.000 C 228.707 40.000,227.200 39.921,227.200 39.394 C 227.200 38.573,250.026 38.678,250.300 39.500 M260.209 78.028 C 260.429 78.722,260.772 78.845,262.336 78.792 C 268.908 78.569,271.200 78.778,271.200 79.600 C 271.200 80.344,271.467 80.400,275.000 80.400 C 278.560 80.400,278.800 80.452,278.800 81.217 C 278.800 81.891,279.028 82.019,280.100 81.945 C 282.637 81.771,283.500 81.975,283.716 82.800 C 283.893 83.477,284.262 83.600,286.116 83.600 C 287.970 83.600,288.339 83.723,288.516 84.400 C 288.691 85.070,289.062 85.200,290.800 85.200 C 292.566 85.200,292.907 85.324,293.093 86.033 C 293.287 86.774,293.559 86.851,295.582 86.733 C 297.751 86.606,297.845 86.640,297.680 87.500 C 297.524 88.312,297.663 88.400,299.107 88.400 C 300.370 88.400,300.751 88.568,300.916 89.200 C 301.076 89.813,301.462 90.000,302.563 90.000 C 303.620 90.000,304.000 90.171,304.000 90.647 C 304.000 91.121,304.267 91.242,305.000 91.102 C 305.550 90.997,306.000 91.066,306.000 91.255 C 306.000 91.445,306.270 91.600,306.600 91.600 C 306.930 91.600,307.200 91.883,307.200 92.229 C 307.200 92.635,307.518 92.832,308.100 92.784 C 309.697 92.655,310.000 92.785,310.000 93.600 C 310.000 94.187,310.267 94.400,311.000 94.400 C 311.588 94.400,312.000 94.630,312.000 94.957 C 312.000 95.569,312.841 96.000,314.033 96.000 C 314.533 96.000,314.800 96.278,314.800 96.800 C 314.800 97.467,315.067 97.600,316.400 97.600 C 317.733 97.600,318.000 97.733,318.000 98.400 C 318.000 98.933,318.267 99.200,318.800 99.200 C 319.333 99.200,319.600 99.467,319.600 100.000 C 319.600 100.578,319.867 100.800,320.563 100.800 C 321.330 100.800,321.482 100.963,321.315 101.604 C 321.131 102.308,321.278 102.394,322.513 102.304 C 323.322 102.244,323.821 102.030,323.684 101.800 C 323.553 101.580,323.740 101.638,324.099 101.929 C 324.459 102.220,324.654 102.715,324.533 103.029 C 324.266 103.726,323.912 103.752,323.280 103.120 C 322.907 102.747,322.800 102.791,322.800 103.320 C 322.800 103.733,323.114 104.000,323.600 104.000 C 324.065 104.000,324.400 104.267,324.400 104.637 C 324.400 104.988,324.760 105.369,325.200 105.484 C 325.640 105.599,326.000 105.942,326.000 106.247 C 326.000 106.551,326.204 106.800,326.454 106.800 C 327.085 106.800,328.800 108.716,328.800 109.421 C 328.800 109.740,329.172 110.000,329.629 110.000 C 330.382 110.000,330.400 109.943,329.829 109.371 C 328.943 108.486,329.022 107.877,329.957 108.377 C 330.546 108.692,330.672 109.095,330.525 110.191 C 330.372 111.326,330.467 111.600,331.016 111.600 C 331.608 111.600,331.625 111.508,331.149 110.900 C 330.651 110.266,330.666 110.251,331.300 110.749 C 331.685 111.051,332.000 111.726,332.000 112.249 C 332.000 112.923,332.226 113.200,332.776 113.200 C 333.384 113.200,333.579 113.525,333.676 114.700 C 333.780 115.958,333.944 116.195,334.690 116.169 C 335.427 116.144,335.540 116.299,335.347 117.069 C 335.158 117.823,335.274 118.000,335.957 118.000 C 336.674 118.000,336.800 118.239,336.800 119.600 C 336.800 120.933,336.933 121.200,337.600 121.200 C 338.267 121.200,338.400 121.467,338.400 122.800 C 338.400 123.892,338.667 124.667,339.240 125.240 C 339.772 125.772,340.080 126.591,340.080 127.476 C 340.080 128.636,340.205 128.840,340.817 128.680 C 341.524 128.495,341.953 132.423,341.966 139.200 C 341.978 145.326,341.518 149.200,340.780 149.200 C 340.290 149.200,340.031 149.455,340.068 149.900 C 340.214 151.640,339.964 152.800,339.443 152.800 C 338.708 152.800,338.400 153.684,338.400 155.795 C 338.400 157.334,338.311 157.502,337.592 157.314 C 336.885 157.129,336.797 157.272,336.892 158.451 C 336.983 159.593,336.859 159.820,336.079 159.930 C 335.353 160.033,335.174 160.289,335.239 161.131 C 335.377 162.932,335.227 163.504,334.550 163.764 C 333.949 163.994,333.949 163.938,334.550 163.021 C 335.405 161.716,335.370 161.481,334.400 162.000 C 333.876 162.280,333.600 162.838,333.600 163.614 C 333.600 164.533,333.420 164.800,332.800 164.800 C 332.267 164.800,332.000 165.067,332.000 165.600 C 332.000 166.133,331.733 166.400,331.200 166.400 C 330.667 166.400,330.400 166.667,330.400 167.200 C 330.400 167.733,330.133 168.000,329.600 168.000 C 328.933 168.000,328.800 168.267,328.800 169.600 C 328.800 171.162,328.767 171.200,327.400 171.200 C 326.267 171.200,326.000 171.352,326.000 172.000 C 326.000 172.548,325.733 172.800,325.153 172.800 C 324.464 172.800,324.343 172.987,324.500 173.810 C 324.606 174.365,324.534 174.917,324.340 175.037 C 324.146 175.157,324.072 175.393,324.176 175.561 C 324.280 175.729,324.103 175.867,323.782 175.867 C 322.988 175.867,323.049 175.328,323.900 174.832 C 324.525 174.468,324.504 174.423,323.700 174.412 C 323.195 174.405,322.800 174.643,322.800 174.953 C 322.800 175.258,322.416 175.607,321.947 175.730 C 321.349 175.886,321.153 176.179,321.292 176.710 C 321.454 177.328,321.315 177.435,320.545 177.287 C 319.792 177.144,319.600 177.279,319.600 177.953 C 319.600 178.510,319.347 178.800,318.862 178.800 C 318.456 178.800,317.798 179.160,317.400 179.600 C 317.002 180.040,316.254 180.400,315.738 180.400 C 315.067 180.400,314.800 180.627,314.800 181.200 C 314.800 181.733,314.533 182.000,314.000 182.000 C 313.467 182.000,313.200 182.267,313.200 182.800 C 313.200 183.467,312.933 183.600,311.600 183.600 C 310.267 183.600,310.000 183.733,310.000 184.400 C 310.000 185.048,309.733 185.200,308.600 185.200 C 307.521 185.200,307.207 185.361,307.232 185.900 C 307.250 186.318,307.344 186.399,307.465 186.100 C 307.576 185.825,307.854 185.600,308.082 185.600 C 308.333 185.600,308.301 185.838,308.000 186.200 C 307.696 186.566,306.820 186.800,305.751 186.800 C 304.287 186.800,304.000 186.927,304.000 187.573 C 304.000 188.004,303.633 188.463,303.171 188.609 C 302.673 188.767,302.428 189.097,302.559 189.436 C 302.700 189.804,302.501 190.000,301.987 190.000 C 301.122 190.000,300.903 188.986,301.700 188.665 C 301.999 188.544,301.918 188.450,301.500 188.432 C 301.087 188.413,300.800 188.688,300.800 189.102 C 300.800 189.553,300.305 189.959,299.416 190.237 C 298.656 190.475,298.126 190.520,298.240 190.335 C 298.354 190.151,298.257 190.000,298.024 190.000 C 297.791 190.000,297.600 190.360,297.600 190.800 C 297.600 191.503,297.333 191.600,295.400 191.600 C 293.711 191.600,293.200 191.739,293.200 192.200 C 293.200 192.633,292.756 192.800,291.600 192.800 C 290.267 192.800,290.000 192.933,290.000 193.600 C 290.000 194.307,289.732 194.401,287.700 194.405 C 284.847 194.412,283.600 194.729,283.600 195.447 C 283.600 195.856,282.977 196.000,281.200 196.000 C 279.067 196.000,278.800 196.089,278.800 196.800 C 278.800 197.544,278.533 197.600,275.000 197.600 C 271.761 197.600,271.200 197.696,271.200 198.249 C 271.200 198.808,271.293 198.821,271.865 198.349 C 272.492 197.831,272.938 198.145,272.830 199.028 C 272.813 199.164,270.024 199.251,266.632 199.221 C 260.748 199.168,260.453 199.203,260.205 199.983 L 259.946 200.800 167.173 200.800 L 74.400 200.800 74.400 139.000 L 74.400 77.200 167.173 77.200 L 259.946 77.200 260.209 78.028 M262.148 77.809 C 262.339 78.306,262.236 78.341,261.591 77.995 C 260.664 77.499,260.576 77.200,261.357 77.200 C 261.664 77.200,262.020 77.474,262.148 77.809 M368.200 78.400 C 368.598 78.840,368.722 79.200,368.476 79.200 C 368.230 79.200,367.835 78.840,367.600 78.400 C 367.365 77.960,367.240 77.600,367.324 77.600 C 367.408 77.600,367.802 77.960,368.200 78.400 M294.865 85.730 C 295.143 86.227,295.083 86.400,294.634 86.400 C 294.301 86.400,293.844 86.056,293.619 85.636 C 293.085 84.637,294.305 84.729,294.865 85.730 M395.600 111.649 C 395.600 111.842,395.330 112.000,395.000 112.000 C 394.655 112.000,394.400 111.639,394.400 111.151 C 394.400 110.442,394.499 110.384,395.000 110.800 C 395.330 111.074,395.600 111.456,395.600 111.649 M343.076 139.900 C 342.975 140.285,342.893 139.970,342.893 139.200 C 342.893 138.430,342.975 138.115,343.076 138.500 C 343.176 138.885,343.176 139.515,343.076 139.900 M285.600 195.600 C 285.186 196.374,284.000 196.730,284.000 196.080 C 284.000 195.576,284.906 194.800,285.494 194.800 C 285.904 194.800,285.929 194.986,285.600 195.600 M262.576 200.187 C 261.674 200.870,261.200 200.953,261.200 200.429 C 261.200 200.225,261.515 199.976,261.900 199.876 C 263.210 199.533,263.354 199.599,262.576 200.187 M334.616 220.027 C 334.761 220.261,334.762 220.571,334.618 220.715 C 334.474 220.859,334.208 220.737,334.027 220.443 C 333.753 220.000,333.660 220.002,333.480 220.455 C 333.329 220.835,333.254 220.788,333.232 220.300 C 333.197 219.536,334.192 219.340,334.616 220.027 M331.200 221.800 C 330.926 222.130,330.522 222.400,330.302 222.400 C 330.079 222.400,330.122 222.135,330.400 221.800 C 330.674 221.470,331.078 221.200,331.298 221.200 C 331.521 221.200,331.478 221.465,331.200 221.800 " stroke="none" fill="#040404" fill-rule="evenodd"></path><path id="path1" d="M58.205 38.797 C 22.014 38.975,16.997 39.073,16.895 39.600 C 16.793 40.131,21.559 40.188,58.190 40.096 C 99.235 39.994,99.600 39.986,99.600 39.196 C 99.600 38.758,99.555 38.444,99.500 38.497 C 99.445 38.551,80.862 38.686,58.205 38.797 M158.400 39.389 C 158.400 39.909,159.268 40.000,164.233 40.000 C 168.722 40.000,170.028 39.885,169.901 39.500 C 169.629 38.682,158.400 38.574,158.400 39.389 M227.200 39.394 C 227.200 39.921,228.707 40.000,238.833 40.000 C 247.962 40.000,250.431 39.892,250.300 39.500 C 250.026 38.678,227.200 38.573,227.200 39.394 M316.133 50.166 C 316.133 50.477,316.560 50.814,317.081 50.913 C 317.983 51.086,317.996 51.059,317.352 50.347 C 316.545 49.456,316.133 49.394,316.133 50.166 M260.800 77.386 C 260.800 77.488,261.156 77.762,261.591 77.995 C 262.236 78.341,262.339 78.306,262.148 77.809 C 261.941 77.269,260.800 76.911,260.800 77.386 M367.600 78.400 C 367.835 78.840,368.230 79.200,368.476 79.200 C 368.722 79.200,368.598 78.840,368.200 78.400 C 367.802 77.960,367.408 77.600,367.324 77.600 C 367.240 77.600,367.365 77.960,367.600 78.400 M293.619 85.636 C 293.844 86.056,294.301 86.400,294.634 86.400 C 295.451 86.400,294.739 85.097,293.850 84.966 C 293.339 84.891,293.292 85.025,293.619 85.636 M323.212 101.992 C 322.748 102.279,322.742 102.448,323.175 102.970 C 323.824 103.752,324.249 103.770,324.533 103.029 C 324.828 102.261,323.925 101.552,323.212 101.992 M329.200 108.352 C 329.200 108.715,330.286 110.000,330.593 110.000 C 330.668 110.000,330.687 109.710,330.635 109.355 C 330.529 108.636,329.200 107.707,329.200 108.352 M394.400 111.151 C 394.400 111.639,394.655 112.000,395.000 112.000 C 395.330 112.000,395.600 111.842,395.600 111.649 C 395.600 111.456,395.330 111.074,395.000 110.800 C 394.499 110.384,394.400 110.442,394.400 111.151 M399.022 125.164 C 398.733 125.632,399.176 126.800,399.643 126.800 C 399.839 126.800,400.000 126.350,400.000 125.800 C 400.000 124.812,399.458 124.459,399.022 125.164 M341.654 139.200 C 341.654 140.780,341.707 140.890,342.088 140.100 C 342.400 139.453,342.400 138.947,342.088 138.300 C 341.707 137.510,341.654 137.620,341.654 139.200 M342.893 139.200 C 342.893 139.970,342.975 140.285,343.076 139.900 C 343.176 139.515,343.176 138.885,343.076 138.500 C 342.975 138.115,342.893 138.430,342.893 139.200 M398.300 155.076 C 397.915 155.176,397.600 155.409,397.600 155.592 C 397.600 155.775,397.960 155.831,398.400 155.716 C 398.840 155.601,399.200 155.348,399.200 155.153 C 399.200 154.959,399.155 154.821,399.100 154.846 C 399.045 154.872,398.685 154.975,398.300 155.076 M334.659 162.807 C 334.106 163.743,334.082 163.944,334.541 163.767 C 334.860 163.645,335.222 163.160,335.345 162.690 C 335.673 161.434,335.448 161.472,334.659 162.807 M390.287 174.632 C 389.750 175.349,389.718 175.530,390.156 175.361 C 390.476 175.239,390.846 174.856,390.978 174.512 C 391.352 173.537,391.069 173.586,390.287 174.632 M323.900 174.832 C 323.042 175.332,322.990 175.867,323.800 175.867 C 324.130 175.867,324.312 175.778,324.203 175.670 C 324.095 175.562,324.207 175.232,324.452 174.937 C 324.979 174.303,324.850 174.278,323.900 174.832 M301.700 188.665 C 300.886 188.993,301.130 190.000,302.024 190.000 C 302.526 190.000,302.740 189.827,302.572 189.555 C 302.421 189.311,302.546 188.953,302.849 188.761 C 303.478 188.363,302.627 188.291,301.700 188.665 M284.480 195.280 C 283.831 195.929,283.875 196.400,284.586 196.400 C 284.908 196.400,285.365 196.040,285.600 195.600 C 286.095 194.675,285.309 194.451,284.480 195.280 M271.641 198.551 C 271.282 198.983,271.352 199.147,271.968 199.308 C 272.913 199.555,273.220 199.316,272.930 198.561 C 272.657 197.851,272.224 197.848,271.641 198.551 M261.900 199.876 C 261.515 199.976,261.200 200.225,261.200 200.429 C 261.200 200.953,261.674 200.870,262.576 200.187 C 263.354 199.599,263.210 199.533,261.900 199.876 M333.232 220.300 C 333.254 220.788,333.329 220.835,333.480 220.455 C 333.660 220.002,333.753 220.000,334.027 220.443 C 334.208 220.737,334.474 220.859,334.618 220.715 C 335.000 220.333,334.447 219.600,333.776 219.600 C 333.459 219.600,333.214 219.915,333.232 220.300 M330.400 221.800 C 330.122 222.135,330.079 222.400,330.302 222.400 C 330.522 222.400,330.926 222.130,331.200 221.800 C 331.478 221.465,331.521 221.200,331.298 221.200 C 331.078 221.200,330.674 221.470,330.400 221.800 M282.734 235.069 C 282.047 235.251,281.371 236.400,281.951 236.400 C 282.130 236.400,282.602 236.040,283.000 235.600 C 283.398 235.160,283.651 234.821,283.562 234.846 C 283.473 234.872,283.100 234.972,282.734 235.069 " stroke="none" fill="#080404" fill-rule="evenodd"></path><path id="path2" d="M58.205 38.797 C 22.014 38.975,16.997 39.073,16.895 39.600 C 16.793 40.131,21.559 40.188,58.190 40.096 C 99.235 39.994,99.600 39.986,99.600 39.196 C 99.600 38.758,99.555 38.444,99.500 38.497 C 99.445 38.551,80.862 38.686,58.205 38.797 M158.400 39.389 C 158.400 39.909,159.268 40.000,164.233 40.000 C 168.722 40.000,170.028 39.885,169.901 39.500 C 169.629 38.682,158.400 38.574,158.400 39.389 M227.200 39.394 C 227.200 39.921,228.707 40.000,238.833 40.000 C 247.962 40.000,250.431 39.892,250.300 39.500 C 250.026 38.678,227.200 38.573,227.200 39.394 M316.133 50.166 C 316.133 50.477,316.560 50.814,317.081 50.913 C 317.983 51.086,317.996 51.059,317.352 50.347 C 316.545 49.456,316.133 49.394,316.133 50.166 M260.800 77.386 C 260.800 77.488,261.156 77.762,261.591 77.995 C 262.236 78.341,262.339 78.306,262.148 77.809 C 261.941 77.269,260.800 76.911,260.800 77.386 M367.600 78.400 C 367.835 78.840,368.230 79.200,368.476 79.200 C 368.722 79.200,368.598 78.840,368.200 78.400 C 367.802 77.960,367.408 77.600,367.324 77.600 C 367.240 77.600,367.365 77.960,367.600 78.400 M293.619 85.636 C 293.844 86.056,294.301 86.400,294.634 86.400 C 295.451 86.400,294.739 85.097,293.850 84.966 C 293.339 84.891,293.292 85.025,293.619 85.636 M323.212 101.992 C 322.748 102.279,322.742 102.448,323.175 102.970 C 323.824 103.752,324.249 103.770,324.533 103.029 C 324.828 102.261,323.925 101.552,323.212 101.992 M329.200 108.352 C 329.200 108.715,330.286 110.000,330.593 110.000 C 330.668 110.000,330.687 109.710,330.635 109.355 C 330.529 108.636,329.200 107.707,329.200 108.352 M394.400 111.151 C 394.400 111.639,394.655 112.000,395.000 112.000 C 395.330 112.000,395.600 111.842,395.600 111.649 C 395.600 111.456,395.330 111.074,395.000 110.800 C 394.499 110.384,394.400 110.442,394.400 111.151 M399.022 125.164 C 398.733 125.632,399.176 126.800,399.643 126.800 C 399.839 126.800,400.000 126.350,400.000 125.800 C 400.000 124.812,399.458 124.459,399.022 125.164 M341.654 139.200 C 341.654 140.780,341.707 140.890,342.088 140.100 C 342.400 139.453,342.400 138.947,342.088 138.300 C 341.707 137.510,341.654 137.620,341.654 139.200 M342.893 139.200 C 342.893 139.970,342.975 140.285,343.076 139.900 C 343.176 139.515,343.176 138.885,343.076 138.500 C 342.975 138.115,342.893 138.430,342.893 139.200 M398.300 155.076 C 397.915 155.176,397.600 155.409,397.600 155.592 C 397.600 155.775,397.960 155.831,398.400 155.716 C 398.840 155.601,399.200 155.348,399.200 155.153 C 399.200 154.959,399.155 154.821,399.100 154.846 C 399.045 154.872,398.685 154.975,398.300 155.076 M334.659 162.807 C 334.106 163.743,334.082 163.944,334.541 163.767 C 334.860 163.645,335.222 163.160,335.345 162.690 C 335.673 161.434,335.448 161.472,334.659 162.807 M390.287 174.632 C 389.750 175.349,389.718 175.530,390.156 175.361 C 390.476 175.239,390.846 174.856,390.978 174.512 C 391.352 173.537,391.069 173.586,390.287 174.632 M323.900 174.832 C 323.042 175.332,322.990 175.867,323.800 175.867 C 324.130 175.867,324.312 175.778,324.203 175.670 C 324.095 175.562,324.207 175.232,324.452 174.937 C 324.979 174.303,324.850 174.278,323.900 174.832 M301.700 188.665 C 300.886 188.993,301.130 190.000,302.024 190.000 C 302.526 190.000,302.740 189.827,302.572 189.555 C 302.421 189.311,302.546 188.953,302.849 188.761 C 303.478 188.363,302.627 188.291,301.700 188.665 M284.480 195.280 C 283.831 195.929,283.875 196.400,284.586 196.400 C 284.908 196.400,285.365 196.040,285.600 195.600 C 286.095 194.675,285.309 194.451,284.480 195.280 M271.641 198.551 C 271.282 198.983,271.352 199.147,271.968 199.308 C 272.913 199.555,273.220 199.316,272.930 198.561 C 272.657 197.851,272.224 197.848,271.641 198.551 M261.900 199.876 C 261.515 199.976,261.200 200.225,261.200 200.429 C 261.200 200.953,261.674 200.870,262.576 200.187 C 263.354 199.599,263.210 199.533,261.900 199.876 M333.232 220.300 C 333.254 220.788,333.329 220.835,333.480 220.455 C 333.660 220.002,333.753 220.000,334.027 220.443 C 334.208 220.737,334.474 220.859,334.618 220.715 C 335.000 220.333,334.447 219.600,333.776 219.600 C 333.459 219.600,333.214 219.915,333.232 220.300 M330.400 221.800 C 330.122 222.135,330.079 222.400,330.302 222.400 C 330.522 222.400,330.926 222.130,331.200 221.800 C 331.478 221.465,331.521 221.200,331.298 221.200 C 331.078 221.200,330.674 221.470,330.400 221.800 M282.734 235.069 C 282.047 235.251,281.371 236.400,281.951 236.400 C 282.130 236.400,282.602 236.040,283.000 235.600 C 283.398 235.160,283.651 234.821,283.562 234.846 C 283.473 234.872,283.100 234.972,282.734 235.069 " stroke="none" fill="#080404" fill-rule="evenodd"></path><path id="path3" d="M58.205 38.797 C 22.014 38.975,16.997 39.073,16.895 39.600 C 16.793 40.131,21.559 40.188,58.190 40.096 C 99.235 39.994,99.600 39.986,99.600 39.196 C 99.600 38.758,99.555 38.444,99.500 38.497 C 99.445 38.551,80.862 38.686,58.205 38.797 M158.400 39.389 C 158.400 39.909,159.268 40.000,164.233 40.000 C 168.722 40.000,170.028 39.885,169.901 39.500 C 169.629 38.682,158.400 38.574,158.400 39.389 M227.200 39.394 C 227.200 39.921,228.707 40.000,238.833 40.000 C 247.962 40.000,250.431 39.892,250.300 39.500 C 250.026 38.678,227.200 38.573,227.200 39.394 M316.133 50.166 C 316.133 50.477,316.560 50.814,317.081 50.913 C 317.983 51.086,317.996 51.059,317.352 50.347 C 316.545 49.456,316.133 49.394,316.133 50.166 M260.800 77.386 C 260.800 77.488,261.156 77.762,261.591 77.995 C 262.236 78.341,262.339 78.306,262.148 77.809 C 261.941 77.269,260.800 76.911,260.800 77.386 M367.600 78.400 C 367.835 78.840,368.230 79.200,368.476 79.200 C 368.722 79.200,368.598 78.840,368.200 78.400 C 367.802 77.960,367.408 77.600,367.324 77.600 C 367.240 77.600,367.365 77.960,367.600 78.400 M293.619 85.636 C 293.844 86.056,294.301 86.400,294.634 86.400 C 295.451 86.400,294.739 85.097,293.850 84.966 C 293.339 84.891,293.292 85.025,293.619 85.636 M323.212 101.992 C 322.748 102.279,322.742 102.448,323.175 102.970 C 323.824 103.752,324.249 103.770,324.533 103.029 C 324.828 102.261,323.925 101.552,323.212 101.992 M329.200 108.352 C 329.200 108.715,330.286 110.000,330.593 110.000 C 330.668 110.000,330.687 109.710,330.635 109.355 C 330.529 108.636,329.200 107.707,329.200 108.352 M394.400 111.151 C 394.400 111.639,394.655 112.000,395.000 112.000 C 395.330 112.000,395.600 111.842,395.600 111.649 C 395.600 111.456,395.330 111.074,395.000 110.800 C 394.499 110.384,394.400 110.442,394.400 111.151 M399.022 125.164 C 398.733 125.632,399.176 126.800,399.643 126.800 C 399.839 126.800,400.000 126.350,400.000 125.800 C 400.000 124.812,399.458 124.459,399.022 125.164 M341.654 139.200 C 341.654 140.780,341.707 140.890,342.088 140.100 C 342.400 139.453,342.400 138.947,342.088 138.300 C 341.707 137.510,341.654 137.620,341.654 139.200 M342.893 139.200 C 342.893 139.970,342.975 140.285,343.076 139.900 C 343.176 139.515,343.176 138.885,343.076 138.500 C 342.975 138.115,342.893 138.430,342.893 139.200 M398.300 155.076 C 397.915 155.176,397.600 155.409,397.600 155.592 C 397.600 155.775,397.960 155.831,398.400 155.716 C 398.840 155.601,399.200 155.348,399.200 155.153 C 399.200 154.959,399.155 154.821,399.100 154.846 C 399.045 154.872,398.685 154.975,398.300 155.076 M334.659 162.807 C 334.106 163.743,334.082 163.944,334.541 163.767 C 334.860 163.645,335.222 163.160,335.345 162.690 C 335.673 161.434,335.448 161.472,334.659 162.807 M390.287 174.632 C 389.750 175.349,389.718 175.530,390.156 175.361 C 390.476 175.239,390.846 174.856,390.978 174.512 C 391.352 173.537,391.069 173.586,390.287 174.632 M323.900 174.832 C 323.042 175.332,322.990 175.867,323.800 175.867 C 324.130 175.867,324.312 175.778,324.203 175.670 C 324.095 175.562,324.207 175.232,324.452 174.937 C 324.979 174.303,324.850 174.278,323.900 174.832 M301.700 188.665 C 300.886 188.993,301.130 190.000,302.024 190.000 C 302.526 190.000,302.740 189.827,302.572 189.555 C 302.421 189.311,302.546 188.953,302.849 188.761 C 303.478 188.363,302.627 188.291,301.700 188.665 M284.480 195.280 C 283.831 195.929,283.875 196.400,284.586 196.400 C 284.908 196.400,285.365 196.040,285.600 195.600 C 286.095 194.675,285.309 194.451,284.480 195.280 M271.641 198.551 C 271.282 198.983,271.352 199.147,271.968 199.308 C 272.913 199.555,273.220 199.316,272.930 198.561 C 272.657 197.851,272.224 197.848,271.641 198.551 M261.900 199.876 C 261.515 199.976,261.200 200.225,261.200 200.429 C 261.200 200.953,261.674 200.870,262.576 200.187 C 263.354 199.599,263.210 199.533,261.900 199.876 M333.232 220.300 C 333.254 220.788,333.329 220.835,333.480 220.455 C 333.660 220.002,333.753 220.000,334.027 220.443 C 334.208 220.737,334.474 220.859,334.618 220.715 C 335.000 220.333,334.447 219.600,333.776 219.600 C 333.459 219.600,333.214 219.915,333.232 220.300 M330.400 221.800 C 330.122 222.135,330.079 222.400,330.302 222.400 C 330.522 222.400,330.926 222.130,331.200 221.800 C 331.478 221.465,331.521 221.200,331.298 221.200 C 331.078 221.200,330.674 221.470,330.400 221.800 M282.734 235.069 C 282.047 235.251,281.371 236.400,281.951 236.400 C 282.130 236.400,282.602 236.040,283.000 235.600 C 283.398 235.160,283.651 234.821,283.562 234.846 C 283.473 234.872,283.100 234.972,282.734 235.069 " stroke="none" fill="#080404" fill-rule="evenodd"></path><path id="path4" d="M58.205 38.797 C 22.014 38.975,16.997 39.073,16.895 39.600 C 16.793 40.131,21.559 40.188,58.190 40.096 C 99.235 39.994,99.600 39.986,99.600 39.196 C 99.600 38.758,99.555 38.444,99.500 38.497 C 99.445 38.551,80.862 38.686,58.205 38.797 M158.400 39.389 C 158.400 39.909,159.268 40.000,164.233 40.000 C 168.722 40.000,170.028 39.885,169.901 39.500 C 169.629 38.682,158.400 38.574,158.400 39.389 M227.200 39.394 C 227.200 39.921,228.707 40.000,238.833 40.000 C 247.962 40.000,250.431 39.892,250.300 39.500 C 250.026 38.678,227.200 38.573,227.200 39.394 M316.133 50.166 C 316.133 50.477,316.560 50.814,317.081 50.913 C 317.983 51.086,317.996 51.059,317.352 50.347 C 316.545 49.456,316.133 49.394,316.133 50.166 M260.800 77.386 C 260.800 77.488,261.156 77.762,261.591 77.995 C 262.236 78.341,262.339 78.306,262.148 77.809 C 261.941 77.269,260.800 76.911,260.800 77.386 M367.600 78.400 C 367.835 78.840,368.230 79.200,368.476 79.200 C 368.722 79.200,368.598 78.840,368.200 78.400 C 367.802 77.960,367.408 77.600,367.324 77.600 C 367.240 77.600,367.365 77.960,367.600 78.400 M293.619 85.636 C 293.844 86.056,294.301 86.400,294.634 86.400 C 295.451 86.400,294.739 85.097,293.850 84.966 C 293.339 84.891,293.292 85.025,293.619 85.636 M323.212 101.992 C 322.748 102.279,322.742 102.448,323.175 102.970 C 323.824 103.752,324.249 103.770,324.533 103.029 C 324.828 102.261,323.925 101.552,323.212 101.992 M329.200 108.352 C 329.200 108.715,330.286 110.000,330.593 110.000 C 330.668 110.000,330.687 109.710,330.635 109.355 C 330.529 108.636,329.200 107.707,329.200 108.352 M394.400 111.151 C 394.400 111.639,394.655 112.000,395.000 112.000 C 395.330 112.000,395.600 111.842,395.600 111.649 C 395.600 111.456,395.330 111.074,395.000 110.800 C 394.499 110.384,394.400 110.442,394.400 111.151 M399.022 125.164 C 398.733 125.632,399.176 126.800,399.643 126.800 C 399.839 126.800,400.000 126.350,400.000 125.800 C 400.000 124.812,399.458 124.459,399.022 125.164 M341.654 139.200 C 341.654 140.780,341.707 140.890,342.088 140.100 C 342.400 139.453,342.400 138.947,342.088 138.300 C 341.707 137.510,341.654 137.620,341.654 139.200 M342.893 139.200 C 342.893 139.970,342.975 140.285,343.076 139.900 C 343.176 139.515,343.176 138.885,343.076 138.500 C 342.975 138.115,342.893 138.430,342.893 139.200 M398.300 155.076 C 397.915 155.176,397.600 155.409,397.600 155.592 C 397.600 155.775,397.960 155.831,398.400 155.716 C 398.840 155.601,399.200 155.348,399.200 155.153 C 399.200 154.959,399.155 154.821,399.100 154.846 C 399.045 154.872,398.685 154.975,398.300 155.076 M334.659 162.807 C 334.106 163.743,334.082 163.944,334.541 163.767 C 334.860 163.645,335.222 163.160,335.345 162.690 C 335.673 161.434,335.448 161.472,334.659 162.807 M390.287 174.632 C 389.750 175.349,389.718 175.530,390.156 175.361 C 390.476 175.239,390.846 174.856,390.978 174.512 C 391.352 173.537,391.069 173.586,390.287 174.632 M323.900 174.832 C 323.042 175.332,322.990 175.867,323.800 175.867 C 324.130 175.867,324.312 175.778,324.203 175.670 C 324.095 175.562,324.207 175.232,324.452 174.937 C 324.979 174.303,324.850 174.278,323.900 174.832 M301.700 188.665 C 300.886 188.993,301.130 190.000,302.024 190.000 C 302.526 190.000,302.740 189.827,302.572 189.555 C 302.421 189.311,302.546 188.953,302.849 188.761 C 303.478 188.363,302.627 188.291,301.700 188.665 M284.480 195.280 C 283.831 195.929,283.875 196.400,284.586 196.400 C 284.908 196.400,285.365 196.040,285.600 195.600 C 286.095 194.675,285.309 194.451,284.480 195.280 M271.641 198.551 C 271.282 198.983,271.352 199.147,271.968 199.308 C 272.913 199.555,273.220 199.316,272.930 198.561 C 272.657 197.851,272.224 197.848,271.641 198.551 M261.900 199.876 C 261.515 199.976,261.200 200.225,261.200 200.429 C 261.200 200.953,261.674 200.870,262.576 200.187 C 263.354 199.599,263.210 199.533,261.900 199.876 M333.232 220.300 C 333.254 220.788,333.329 220.835,333.480 220.455 C 333.660 220.002,333.753 220.000,334.027 220.443 C 334.208 220.737,334.474 220.859,334.618 220.715 C 335.000 220.333,334.447 219.600,333.776 219.600 C 333.459 219.600,333.214 219.915,333.232 220.300 M330.400 221.800 C 330.122 222.135,330.079 222.400,330.302 222.400 C 330.522 222.400,330.926 222.130,331.200 221.800 C 331.478 221.465,331.521 221.200,331.298 221.200 C 331.078 221.200,330.674 221.470,330.400 221.800 M282.734 235.069 C 282.047 235.251,281.371 236.400,281.951 236.400 C 282.130 236.400,282.602 236.040,283.000 235.600 C 283.398 235.160,283.651 234.821,283.562 234.846 C 283.473 234.872,283.100 234.972,282.734 235.069 " />
      </g>
     </g>
    </g>
   </g>
  </g>
 </g>
</svg>